<mxfile host="app.diagrams.net" modified="2021-01-06T10:51:48.867Z" agent="5.0 (Windows)" etag="z1odTr81n4blJPuajx99" version="14.1.8" type="github">
  <diagram id="5uT8dm61a1b_Dk0GXY2D" name="Page-1">
    <mxGraphModel dx="923" dy="376" grid="1" gridSize="10" guides="1" tooltips="1" connect="1" arrows="1" fold="1" page="1" pageScale="1" pageWidth="827" pageHeight="1169" math="0" shadow="0">
      <root>
        <mxCell id="0" />
        <mxCell id="1" parent="0" />
        <mxCell id="bG4xbo2p4vwZnYhVoT0--1" value="EmployeeHome&#xa;PageView" style="shape=umlLifeline;perimeter=lifelinePerimeter;container=1;collapsible=0;recursiveResize=0;rounded=0;shadow=0;strokeWidth=1;" vertex="1" parent="1">
          <mxGeometry x="210" y="80" width="100" height="360" as="geometry" />
        </mxCell>
        <mxCell id="bG4xbo2p4vwZnYhVoT0--2" value="" style="points=[];perimeter=orthogonalPerimeter;rounded=0;shadow=0;strokeWidth=1;" vertex="1" parent="bG4xbo2p4vwZnYhVoT0--1">
          <mxGeometry x="45" y="70" width="10" height="250" as="geometry" />
        </mxCell>
        <mxCell id="bG4xbo2p4vwZnYhVoT0--3" value="ExportSchedule&#xa;Controller" style="shape=umlLifeline;perimeter=lifelinePerimeter;container=1;collapsible=0;recursiveResize=0;rounded=0;shadow=0;strokeWidth=1;" vertex="1" parent="1">
          <mxGeometry x="400" y="80" width="100" height="350" as="geometry" />
        </mxCell>
        <mxCell id="bG4xbo2p4vwZnYhVoT0--4" value="" style="points=[];perimeter=orthogonalPerimeter;rounded=0;shadow=0;strokeWidth=1;" vertex="1" parent="bG4xbo2p4vwZnYhVoT0--3">
          <mxGeometry x="45" y="80" width="10" height="240" as="geometry" />
        </mxCell>
        <mxCell id="bG4xbo2p4vwZnYhVoT0--5" value="Employee" style="shape=umlActor;verticalLabelPosition=bottom;verticalAlign=top;html=1;outlineConnect=0;" vertex="1" parent="1">
          <mxGeometry x="50" y="60" width="30" height="60" as="geometry" />
        </mxCell>
        <mxCell id="bG4xbo2p4vwZnYhVoT0--6" value="Database" style="shape=umlLifeline;perimeter=lifelinePerimeter;container=1;collapsible=0;recursiveResize=0;rounded=0;shadow=0;strokeWidth=1;" vertex="1" parent="1">
          <mxGeometry x="580" y="80" width="100" height="350" as="geometry" />
        </mxCell>
        <mxCell id="bG4xbo2p4vwZnYhVoT0--7" value="" style="points=[];perimeter=orthogonalPerimeter;rounded=0;shadow=0;strokeWidth=1;" vertex="1" parent="bG4xbo2p4vwZnYhVoT0--6">
          <mxGeometry x="45" y="80" width="10" height="240" as="geometry" />
        </mxCell>
        <mxCell id="bG4xbo2p4vwZnYhVoT0--8" value="" style="points=[];perimeter=orthogonalPerimeter;rounded=0;shadow=0;strokeWidth=1;" vertex="1" parent="1">
          <mxGeometry x="60" y="150" width="10" height="250" as="geometry" />
        </mxCell>
        <mxCell id="bG4xbo2p4vwZnYhVoT0--9" value="click on export schedule button" style="verticalAlign=bottom;endArrow=block;shadow=0;strokeWidth=1;" edge="1" parent="1" source="bG4xbo2p4vwZnYhVoT0--8" target="bG4xbo2p4vwZnYhVoT0--2">
          <mxGeometry relative="1" as="geometry">
            <mxPoint x="175" y="560" as="sourcePoint" />
            <mxPoint x="300" y="490" as="targetPoint" />
            <Array as="points">
              <mxPoint x="160" y="180" />
            </Array>
          </mxGeometry>
        </mxCell>
        <mxCell id="bG4xbo2p4vwZnYhVoT0--10" value="new ExportScheduleController()" style="verticalAlign=bottom;endArrow=block;shadow=0;strokeWidth=1;" edge="1" parent="1" source="bG4xbo2p4vwZnYhVoT0--2" target="bG4xbo2p4vwZnYhVoT0--4">
          <mxGeometry relative="1" as="geometry">
            <mxPoint x="228.5" y="210" as="sourcePoint" />
            <mxPoint x="413.5" y="210" as="targetPoint" />
            <Array as="points">
              <mxPoint x="318.5" y="210" />
            </Array>
          </mxGeometry>
        </mxCell>
        <mxCell id="bG4xbo2p4vwZnYhVoT0--11" value="getEmployeeID()" style="verticalAlign=bottom;endArrow=block;shadow=0;strokeWidth=1;" edge="1" parent="1" source="bG4xbo2p4vwZnYhVoT0--4" target="bG4xbo2p4vwZnYhVoT0--7">
          <mxGeometry relative="1" as="geometry">
            <mxPoint x="430" y="200" as="sourcePoint" />
            <mxPoint x="610" y="200" as="targetPoint" />
            <Array as="points">
              <mxPoint x="484" y="230" />
            </Array>
          </mxGeometry>
        </mxCell>
        <mxCell id="bG4xbo2p4vwZnYhVoT0--13" value="employeeID" style="verticalAlign=bottom;endArrow=open;dashed=1;endSize=8;shadow=0;strokeWidth=1;" edge="1" parent="1" source="bG4xbo2p4vwZnYhVoT0--7" target="bG4xbo2p4vwZnYhVoT0--4">
          <mxGeometry relative="1" as="geometry">
            <mxPoint x="330" y="560" as="targetPoint" />
            <mxPoint x="420" y="580" as="sourcePoint" />
            <Array as="points">
              <mxPoint x="530" y="260" />
            </Array>
            <mxPoint as="offset" />
          </mxGeometry>
        </mxCell>
        <mxCell id="bG4xbo2p4vwZnYhVoT0--14" value="getEmployeeSchedule()" style="verticalAlign=bottom;endArrow=block;shadow=0;strokeWidth=1;" edge="1" parent="1">
          <mxGeometry relative="1" as="geometry">
            <mxPoint x="455" y="290" as="sourcePoint" />
            <mxPoint x="625" y="290" as="targetPoint" />
            <Array as="points">
              <mxPoint x="484" y="290" />
            </Array>
          </mxGeometry>
        </mxCell>
        <mxCell id="bG4xbo2p4vwZnYhVoT0--15" value="employeeSchdule" style="verticalAlign=bottom;endArrow=open;dashed=1;endSize=8;shadow=0;strokeWidth=1;" edge="1" parent="1">
          <mxGeometry relative="1" as="geometry">
            <mxPoint x="455" y="320" as="targetPoint" />
            <mxPoint x="625" y="320" as="sourcePoint" />
            <Array as="points">
              <mxPoint x="530" y="320" />
            </Array>
            <mxPoint as="offset" />
          </mxGeometry>
        </mxCell>
        <mxCell id="bG4xbo2p4vwZnYhVoT0--18" value="exportSchedule()" style="verticalAlign=bottom;endArrow=block;shadow=0;strokeWidth=1;" edge="1" parent="1" target="bG4xbo2p4vwZnYhVoT0--4">
          <mxGeometry x="-0.3409" y="16" relative="1" as="geometry">
            <mxPoint x="455" y="350" as="sourcePoint" />
            <mxPoint x="620" y="350" as="targetPoint" />
            <Array as="points">
              <mxPoint x="484" y="350" />
              <mxPoint x="484" y="380" />
            </Array>
            <mxPoint as="offset" />
          </mxGeometry>
        </mxCell>
        <mxCell id="bG4xbo2p4vwZnYhVoT0--19" value="successfullyExportedPopup" style="verticalAlign=bottom;endArrow=open;dashed=1;endSize=8;shadow=0;strokeWidth=1;" edge="1" parent="1" source="bG4xbo2p4vwZnYhVoT0--4" target="bG4xbo2p4vwZnYhVoT0--2">
          <mxGeometry x="0.0556" relative="1" as="geometry">
            <mxPoint x="270" y="390" as="targetPoint" />
            <mxPoint x="440" y="390" as="sourcePoint" />
            <Array as="points">
              <mxPoint x="345" y="390" />
            </Array>
            <mxPoint as="offset" />
          </mxGeometry>
        </mxCell>
      </root>
    </mxGraphModel>
  </diagram>
</mxfile>
